<?xml version="1.0" encoding="UTF-8" standalone="no"?>
<!-- Created with Inkscape (http://www.inkscape.org/) -->

<svg version="1.1" id="svg2" width="260" height="280" viewBox="0 0 260 280" sodipodi:docname="logo.svg" inkscape:version="1.2.2 (b0a8486541, 2022-12-01)" xmlns:inkscape="http://www.inkscape.org/namespaces/inkscape" xmlns:sodipodi="http://sodipodi.sourceforge.net/DTD/sodipodi-0.dtd" xmlns="http://www.w3.org/2000/svg" xmlns:svg="http://www.w3.org/2000/svg">
  <defs id="defs6">
    <inkscape:path-effect effect="spiro" id="path-effect1419" is_visible="true" lpeversion="1" />
    <inkscape:path-effect effect="spiro" id="path-effect511" is_visible="true" lpeversion="1" />
    <inkscape:path-effect effect="spiro" id="path-effect477" is_visible="true" lpeversion="1" />
    <inkscape:path-effect effect="spiro" id="path-effect511-3" is_visible="true" lpeversion="1" />
    <inkscape:path-effect effect="spiro" id="path-effect1419-5" is_visible="true" lpeversion="1" />
  </defs>
  <sodipodi:namedview id="namedview4" pagecolor="#ffffff" bordercolor="#666666" borderopacity="1.0" inkscape:showpageshadow="2" inkscape:pageopacity="0.0" inkscape:pagecheckerboard="0" inkscape:deskcolor="#d1d1d1" showgrid="true" inkscape:zoom="2.38396" inkscape:cx="173.66063" inkscape:cy="146.60481" inkscape:window-width="1680" inkscape:window-height="999" inkscape:window-x="0" inkscape:window-y="27" inkscape:window-maximized="1" inkscape:current-layer="g8">
    <inkscape:grid type="xygrid" id="grid1613" />
  </sodipodi:namedview>
  <g inkscape:groupmode="layer" inkscape:label="Image" id="g8">
    <path style="fill:#000000;stroke-width:0.999807" d="m 94.336643,222.31137 c -6.74725,-3.56283 -10.60963,-11.96859 -5.49947,-11.96859 1.48348,0 2.83409,0.93963 3.71464,2.58431 2.85159,5.32619 10.839917,6.99867 16.615047,3.47861 1.7384,-1.05959 3.44303,-2.81566 3.78807,-3.90238 0.88274,-2.78019 3.72669,-3.64049 5.23199,-1.58267 0.98468,1.34611 0.96022,2.21462 -0.12124,4.30513 -4.18375,8.08735 -15.45697,11.45358 -23.729037,7.08559 z m -12.15466,-17.81253 c -0.74162,-0.46979 -1.18574,-1.69993 -0.98694,-2.73363 0.3382,-1.75845 1.72121,-1.89679 21.483897,-2.14889 17.96441,-0.22917 21.20797,-0.0467 21.69445,1.22059 0.3146,0.81952 -0.11602,2.17779 -0.95694,3.01838 -1.26677,1.26628 -4.81748,1.52572 -20.70751,1.51305 -10.548207,-0.008 -19.785347,-0.3997 -20.526957,-0.8695 z m -3.36069,-12.82541 c -0.31659,-0.82468 -0.31659,-2.17416 0,-2.99884 0.48889,-1.27354 4.09047,-1.49942 23.906987,-1.49942 24.43791,0 26.67077,0.37607 24.64939,4.15159 -0.918,1.71463 -2.66152,1.84609 -24.48458,1.84609 -19.963017,0 -23.582747,-0.22547 -24.071797,-1.49942 z m -0.77051,-9.84809 c -0.24852,-0.41234 -0.9531,-4.00412 -1.56573,-7.98175 -2.05013,-13.31081 -4.69832,-19.31819 -14.579997,-33.0745 -11.6296,-16.1896 -15.00506,-25.29561 -14.88757,-40.1624 0.32904,-41.636095 44.237547,-68.3481 81.714734,-49.711644 20.06989,9.980248 33.03004,32.462054 31.27827,54.258014 -0.97086,12.07957 -3.88815,19.34196 -13.35567,33.24795 -10.29922,15.12761 -13.89727,22.70802 -15.38086,32.40456 -0.61188,3.99917 -1.50266,8.28333 -1.9795,9.52035 l -0.86698,2.24913 h -24.96242 c -13.729337,0 -25.165757,-0.33737 -25.414277,-0.74971 z m 47.517037,-13.17193 c 2.21809,-10.72282 5.89038,-18.49664 14.6381,-30.98718 8.84827,-12.63413 10.54539,-15.83511 12.60206,-23.76899 8.19274,-31.604626 -16.54317,-63.271263 -49.42338,-63.271263 -35.225174,0 -59.891784,35.660507 -47.475374,68.635143 1.38865,3.6879 5.77442,11.14521 10.09975,17.17308 9.471387,13.1995 13.122237,20.79007 15.233457,31.67216 l 1.64217,8.46444 20.522037,0.003 20.52204,0.003 1.63914,-7.92396 z" id="path179" sodipodi:nodetypes="ssssssssssssscsssssssssssssssscsscssssssccccc" />
    <path id="path410" style="fill:#000000;stroke:#000000;stroke-width:0" d="m 86.460133,82.941213 -0.0738,30.790817 26.376117,-15.146655 a 4.1987476,4.1987476 0 0 0 -0.008,0.120277 4.1987476,4.1987476 0 0 0 4.19875,4.198748 4.1987476,4.1987476 0 0 0 4.19875,-4.198748 4.1987476,4.1987476 0 0 0 -4.19875,-4.198748 4.1987476,4.1987476 0 0 0 -4.16595,3.717641 z m 1.703,2.949511 21.789207,12.645447 -21.846607,12.547049 z m 28.819927,10.045832 a 2.7991644,2.7991644 0 0 1 2.79916,2.799165 2.7991644,2.7991644 0 0 1 -2.79916,2.799169 2.7991644,2.7991644 0 0 1 -2.79917,-2.799169 2.7991644,2.7991644 0 0 1 2.79917,-2.799165 z" />
    <path style="fill:none;fill-rule:evenodd;stroke:#000000;stroke-width:1.3;stroke-linecap:butt;stroke-linejoin:miter;stroke-dasharray:none;stroke-opacity:1" d="m 120.50591,98.711017 c 2.00485,-0.117898 4.04319,0.428232 5.72053,1.532693 1.82585,1.20225 3.20071,3.04431 3.93858,5.10214 0.73787,2.05783 0.85126,4.3197 0.43247,6.46533 -0.55657,2.85156 -2.01312,5.44977 -3.67567,7.83244 -1.66254,2.38267 -3.55097,4.60581 -5.12753,7.04623 -2.99134,4.63043 -4.78381,9.91971 -6.39742,15.19089 -1.78563,5.83313 -3.39003,11.72632 -4.61417,17.70255 -1.22694,5.98991 -2.0704,12.05834 -2.52351,18.15581" id="path1417" inkscape:path-effect="#path-effect1419" inkscape:original-d="m 120.50591,98.711017 c 1.90784,0.511897 3.81469,1.022793 5.72053,1.532693 1.90584,0.50989 2.91503,7.71264 4.37105,11.56747 1.45602,3.85482 -5.8678,9.92011 -8.8032,14.87867 -2.9354,4.95855 -4.26395,10.12826 -6.39742,15.19089 -2.13347,5.06263 -3.07512,11.8027 -4.61417,17.70255 -1.53906,5.89985 -1.68134,12.10487 -2.52351,18.15581" />
    <path style="fill:none;fill-rule:evenodd;stroke:#000000;stroke-width:1.3;stroke-linecap:butt;stroke-linejoin:miter;stroke-dasharray:none;stroke-opacity:1" d="m 86.765143,98.223145 c -2.004845,-0.1179 -4.043189,0.428229 -5.72053,1.532689 -1.825849,1.202246 -3.200711,3.044316 -3.938581,5.102146 -0.737871,2.05783 -0.851254,4.3197 -0.432466,6.46533 0.556572,2.85156 2.013124,5.44977 3.675665,7.83244 1.662541,2.38267 3.550977,4.60581 5.127532,7.04623 2.991344,4.63043 4.78381,9.91971 6.39742,15.19089 1.785634,5.83313 3.390031,11.72632 4.61417,17.70255 1.226941,5.98991 2.070404,12.05834 2.52351,18.15581" id="path1417-3" inkscape:path-effect="#path-effect1419-5" inkscape:original-d="m 86.765143,98.223145 c -1.90784,0.511897 -3.81469,1.022793 -5.72053,1.532689 -1.90584,0.509896 -2.91503,7.712646 -4.371047,11.567476 -1.45602,3.85482 5.867797,9.92011 8.803197,14.87867 2.9354,4.95855 4.26395,10.12826 6.39742,15.19089 2.13347,5.06263 3.07512,11.8027 4.61417,17.70255 1.53906,5.89985 1.68134,12.10487 2.52351,18.15581" />
    <text xml:space="preserve" style="font-size:26.6667px;line-height:125%;font-family:'Noto Sans Sinhala';-inkscape-font-specification:'Noto Sans Sinhala';letter-spacing:0px;word-spacing:0px;writing-mode:lr-tb;fill:none;stroke:#000000;stroke-width:1px;stroke-linecap:butt;stroke-linejoin:miter;stroke-opacity:1" x="150.0051" y="171.92651" id="text1553"><tspan sodipodi:role="line" id="tspan1551" x="150.0051" y="171.92651">Bright</tspan></text>
    <text xml:space="preserve" style="font-size:16px;line-height:125%;font-family:'Noto Sans Sinhala';-inkscape-font-specification:'Noto Sans Sinhala';letter-spacing:0px;word-spacing:0px;writing-mode:lr-tb;fill:none;stroke:#000000;stroke-width:1px;stroke-linecap:butt;stroke-linejoin:miter;stroke-opacity:1" x="129.59732" y="221.2747" id="text1607"><tspan sodipodi:role="line" id="tspan1605" x="129.59732" y="221.2747">Technologies</tspan></text>
    <text xml:space="preserve" style="font-size:26.6667px;line-height:125%;font-family:'Noto Sans Sinhala';-inkscape-font-specification:'Noto Sans Sinhala';letter-spacing:0px;word-spacing:0px;writing-mode:lr-tb;fill:none;stroke:#000000;stroke-width:1px;stroke-linecap:butt;stroke-linejoin:miter;stroke-opacity:1" x="161.70679" y="200.24049" id="text1611"><tspan sodipodi:role="line" id="tspan1609" x="161.70679" y="200.24049">Logic</tspan></text>
  </g>
</svg>
